<?xml version="1.0" encoding="UTF-8"?>
<svg id="Layer_2" data-name="Layer 2" xmlns="http://www.w3.org/2000/svg" viewBox="0 0 409.94 409.94">
  <defs>
    <style>
      .cls-1 {
        fill: #131315;
      }
    </style>
  </defs>
  <g id="Layer_1-2" data-name="Layer 1">
    <g>
      <path class="cls-1" d="M263.83,189.56l-3.31,26.58c-.56,4.44-4.32,7.78-8.78,7.78h-43.05v111.13c-4.54.41-9.14.62-13.79.62-10.4,0-20.55-1.04-30.36-3.02v-108.73h-33.11c-3.04,0-5.52-2.49-5.52-5.54v-33.26c0-3.05,2.48-5.54,5.52-5.54h33.11v-49.88c0-30.61,24.71-55.42,55.2-55.42h38.63c3.04,0,5.52,2.49,5.52,5.54v33.26c0,3.05-2.48,5.54-5.52,5.54h-27.6c-12.19,0-22.07,9.92-22.07,22.17v38.8h46.36c5.32,0,9.43,4.68,8.78,9.98Z"/>
      <path class="cls-1" d="M362.28,0H47.65C21.34,0,0,21.34,0,47.65v314.63c0,26.31,21.34,47.65,47.65,47.65h314.63c26.31,0,47.65-21.34,47.65-47.65V47.65c0-26.31-21.34-47.65-47.65-47.65ZM390.87,362.28c0,15.76-12.83,28.59-28.59,28.59H47.65c-15.76,0-28.59-12.83-28.59-28.59V47.65c0-15.76,12.83-28.59,28.59-28.59h314.63c15.76,0,28.59,12.83,28.59,28.59v314.63Z"/>
    </g>
  </g>
</svg>