<?xml version="1.0" encoding="UTF-8"?>
<svg id="Layer_1" data-name="Layer 1" xmlns="http://www.w3.org/2000/svg" viewBox="0 0 409.94 409.94">
  <defs>
    <style>
      .cls-1 {
        fill: #131315;
      }
    </style>
  </defs>
  <path class="cls-1" d="M259.07,100.75h-107.81c-27.78,0-50.31,22.53-50.31,50.31v107.81c0,27.78,22.53,50.31,50.31,50.31h107.81c27.78,0,50.31-22.53,50.31-50.31v-107.81c0-27.78-22.53-50.31-50.31-50.31ZM291.42,255.28c0,19.84-16.1,35.94-35.94,35.94h-100.62c-19.84,0-35.94-16.1-35.94-35.94v-100.62c0-19.84,16.1-35.94,35.94-35.94h100.62c19.84,0,35.94,16.1,35.94,35.94v100.62Z"/>
  <path class="cls-1" d="M205.17,151.06c-29.75,0-53.9,24.15-53.9,53.9s24.15,53.9,53.9,53.9,53.9-24.15,53.9-53.9-24.15-53.9-53.9-53.9ZM205.17,240.9c-19.8,0-35.94-16.14-35.94-35.94s16.14-35.94,35.94-35.94,35.94,16.14,35.94,35.94-16.14,35.94-35.94,35.94Z"/>
  <path class="cls-1" d="M262.67,158.25c-5.94,0-10.78-4.84-10.78-10.78s4.84-10.78,10.78-10.78,10.78,4.84,10.78,10.78-4.84,10.78-10.78,10.78Z"/>
  <path class="cls-1" d="M362.28,0H47.65C21.34,0,0,21.34,0,47.65v314.63c0,26.31,21.34,47.65,47.65,47.65h314.63c26.31,0,47.65-21.34,47.65-47.65V47.65c0-26.31-21.34-47.65-47.65-47.65ZM390.87,362.28c0,15.76-12.83,28.59-28.59,28.59H47.65c-15.76,0-28.59-12.83-28.59-28.59V47.65c0-15.76,12.83-28.59,28.59-28.59h314.63c15.76,0,28.59,12.83,28.59,28.59v314.63Z"/>
</svg>