<?xml version="1.0" encoding="UTF-8"?>
<svg id="Layer_1" data-name="Layer 1" xmlns="http://www.w3.org/2000/svg" viewBox="0 0 409.94 409.94">
  <defs>
    <style>
      .cls-1 {
        fill: #131315;
      }
    </style>
  </defs>
  <g>
    <circle class="cls-1" cx="134.8" cy="132.47" r="25.59"/>
    <rect class="cls-1" x="113.48" y="175.11" width="42.65" height="127.94" rx="1.91" ry="1.91"/>
    <path class="cls-1" d="M301.13,222.03v72.5c0,4.69-3.84,8.53-8.53,8.53h-25.59c-4.69,0-8.53-3.84-8.53-8.53v-59.71c0-11.77-9.55-21.32-21.32-21.32s-21.32,9.55-21.32,21.32v59.71c0,4.69-3.84,8.53-8.53,8.53h-25.59c-4.69,0-8.53-3.84-8.53-8.53v-110.89c0-4.69,3.84-8.53,8.53-8.53h25.59c4.69,0,8.53,3.84,8.53,8.53v5.46c8.53-11.05,22.65-18.25,38.38-18.25,23.54,0,46.91,17.06,46.91,51.18Z"/>
  </g>
  <path class="cls-1" d="M362.28,0H47.65C21.34,0,0,21.34,0,47.65v314.63c0,26.31,21.34,47.65,47.65,47.65h314.63c26.31,0,47.65-21.34,47.65-47.65V47.65c0-26.31-21.34-47.65-47.65-47.65ZM390.87,362.28c0,15.76-12.83,28.59-28.59,28.59H47.65c-15.76,0-28.59-12.83-28.59-28.59V47.65c0-15.76,12.83-28.59,28.59-28.59h314.63c15.76,0,28.59,12.83,28.59,28.59v314.63Z"/>
</svg>