<?xml version="1.0" encoding="UTF-8"?>
<svg id="Layer_1" data-name="Layer 1" xmlns="http://www.w3.org/2000/svg" viewBox="0 0 409.94 409.94">
  <defs>
    <style>
      .cls-1 {
        fill: #131315;
      }
    </style>
  </defs>
  <path class="cls-1" d="M362.28,0H47.65C21.34,0,0,21.34,0,47.65v314.63c0,26.31,21.34,47.65,47.65,47.65h314.63c26.31,0,47.65-21.34,47.65-47.65V47.65c0-26.31-21.34-47.65-47.65-47.65ZM390.87,362.28c0,15.76-12.83,28.59-28.59,28.59H47.65c-15.76,0-28.59-12.83-28.59-28.59V47.65c0-15.76,12.83-28.59,28.59-28.59h314.63c15.76,0,28.59,12.83,28.59,28.59v314.63Z"/>
  <path class="cls-1" d="M233.64,186.72l80.37-85.96h-30.52l-63.08,67.48-48.31-67.48h-83.48l84.5,118.04-84.5,90.39h30.52l67.22-71.9,51.47,71.9h83.48l-87.67-122.46ZM131.63,122.86h29.1l117.56,164.21h-29.1l-117.56-164.21Z"/>
</svg>