<?xml version="1.0" encoding="UTF-8"?>
<svg id="Layer_1" data-name="Layer 1" xmlns="http://www.w3.org/2000/svg" viewBox="0 0 409.94 409.94">
  <defs>
    <style>
      .cls-1 {
        fill: #131315;
      }
    </style>
  </defs>
  <path class="cls-1" d="M290.59,120.78H119.35c-16.92,0-30.64,13.72-30.64,30.63v107.1c0,16.92,13.72,30.63,30.64,30.63h171.24c16.91,0,30.63-13.71,30.63-30.63v-107.1c0-16.91-13.72-30.63-30.63-30.63ZM232.47,212.36l-47.62,23.8c-5.5,2.75-11.96-1.24-11.96-7.38v-47.6c0-6.14,6.47-10.13,11.96-7.39l47.62,23.8c6.08,3.04,6.08,11.73,0,14.77Z"/>
  <path class="cls-1" d="M362.28,0H47.65C21.34,0,0,21.34,0,47.65v314.63c0,26.31,21.34,47.65,47.65,47.65h314.63c26.31,0,47.65-21.34,47.65-47.65V47.65c0-26.31-21.34-47.65-47.65-47.65ZM390.87,362.28c0,15.76-12.83,28.59-28.59,28.59H47.65c-15.76,0-28.59-12.83-28.59-28.59V47.65c0-15.76,12.83-28.59,28.59-28.59h314.63c15.76,0,28.59,12.83,28.59,28.59v314.63Z"/>
</svg>